# xmcd
#
# Track frame offsets:
#	182
#	11502
#	26597
#	43715
#	58307
#	77462
#	88592
#	101685
#	118227
#	133180
#	152005
#
# Disc length: 2260 seconds
#
# Revision: 1
# Processed by: cddbd v1.5.1PL2 Copyright (c) Steve Scherf et al.
# Submitted via: audiograbber 1.83.01
#
DISCID=8b08d20b
DTITLE=Graeme Allwright - Lumière
DYEAR=1992
DGENRE=Blues
TTITLE0=Comme un vrai gamin
TTITLE1=L'homme donna des noms aux animaux
TTITLE2=Lumière
TTITLE3=La petite route
TTITLE4=No man's land
TTITLE5=La gomme
TTITLE6=Petite fille
TTITLE7=Star of love
TTITLE8=Le sens des affaires
TTITLE9=Day
TTITLE10=Mangina zaza
EXTD=
EXTT0=
EXTT1=
EXTT2=
EXTT3=
EXTT4=
EXTT5=
EXTT6=
EXTT7=
EXTT8=
EXTT9=
EXTT10=
PLAYORDER=
